<?xml version="1.0" encoding="utf-8"?>
<!-- Generator: Adobe Illustrator 25.2.0, SVG Export Plug-In . SVG Version: 6.00 Build 0)  -->
<svg version="1.1" xmlns="http://www.w3.org/2000/svg" xmlns:xlink="http://www.w3.org/1999/xlink" x="0px" y="0px"
	 viewBox="0 0 3371.1 1383.3" style="enable-background:new 0 0 3371.1 1383.3;" xml:space="preserve">
<style type="text/css">
	.st0{fill:white;}
	.st1{font-family:'GimbalEgypComp-Reg';}
	.st2{font-size:360.0316px;}
	.st3{fill:#FFFFFF;}
	.st4{fill:url(#SVGID_1_);}
	.st5{fill:url(#SVGID_2_);}
	.st6{fill:url(#SVGID_3_);}
	.st7{fill:url(#SVGID_4_);}
	.st8{fill:url(#SVGID_5_);}
	.st9{fill:url(#SVGID_6_);}
	.st10{fill:url(#SVGID_7_);}
	.st11{fill:url(#SVGID_8_);}
</style>
<g id="back">
	<g>
		<text transform="matrix(1 0 0 1 1229.4402 2397.8296)" class="st3 st1 st2">ISNOVATE</text>
	</g>
	<g>
		<text transform="matrix(1 0 0 1 1229.4402 857.6556)" class="st0 st1 st2">ISNOVATE</text>
	</g>
</g>
<g id="color">
	<g>
		<g>
			<path class="st3" d="M1167.6,2086.9v196.2c0,4.6-5.9,6.6-8.7,3c-22.4-28.5-51.9-51.2-85.9-65.4c-1.8-0.8-3-2.5-3-4.5v-54.3
				c0-2.2-1.5-4.1-3.6-4.7l-120.1-51.5c-0.8-0.2-1.7-0.2-2.5,0l-120.1,51.5c-2.1,0.6-3.6,2.5-3.6,4.7v4.7
				c0,42.4,34.4,76.7,76.7,76.7h96.5c96.1,0,174.4,78.2,174.4,174.3v19.7c0,1.4-0.6,2.7-1.6,3.6l-217.7,194.4
				c-1.9,1.7-4.7,1.7-6.5,0L724,2441c-1-0.9-1.6-2.2-1.6-3.6v-130.7c0-4.6,5.7-6.6,8.6-3.1c22.8,27.2,52.3,48.6,85.9,61.8
				c1.9,0.7,3.1,2.5,3.1,4.6v23.7c0,1.4,0.6,2.7,1.6,3.6l55.1,49.2l65,58.1c1.9,1.7,4.7,1.7,6.5,0l116.9-104.4
				c1.4-1.3,2-3.3,1.4-5.1c-9.7-31.3-38.9-54.1-73.3-54.1h-96.5c-96.3,0-174.4-78.1-174.4-174.4v-79.7c0-2.2,1.5-4.1,3.6-4.7
				l217.7-77.6c0.8-0.2,1.7-0.2,2.5,0l217.7,77.6C1166.1,2082.7,1167.6,2084.6,1167.6,2086.9z"/>
		</g>
	</g>
	<g>
		<g>
			<path class="st3" d="M935.8,1743.8c-37.7,49.8-43.6,102-41,139.6c2,29.6,14.3,57.5,33.8,79.7l0,0c0.1,0.1,0.1,0.1,0.2,0.2
				c8.1,9.2,22.7,8.5,30.5-0.9l91.2-110.8c3.9-4.8,5.8-10.9,5.2-17.1l-3.6-36.9c-1.9-19.1-9.8-36.7-20.6-52.6
				c-1.2-1.7-2.2-3.6-3.1-5.8c-2.9-7.3-2.4-15.7,1.4-22.6c9.2-16.7,31.7-19.1,44.2-5.1c6.5,7.3,8.4,18,5.1,27.2
				c-0.2,0.6-0.4,1.1-0.6,1.6c-8.2,19.3-11.5,40.3-9.5,61.2l0.7,7.5c0.6,6.3,8.5,8.7,12.5,3.8l12.4-15.1
				c14.6-17.8,26.4-38.4,30.3-61.1c0.8-4.4,2.6-8.7,5.7-12.5c10.6-12.8,30.6-13.5,41.8-0.1c7.1,8.3,8.3,20.7,3,30.3
				c-3.4,6.2-8.7,10.5-14.7,12.6c-19.5,6.9-36.2,20.3-49.3,36.3l-81.6,99.2c-3.4,4.1-0.1,10.3,5.2,9.7l24.6-2.4
				c16.2-1.6,40.8-10.1,54.5-18.9l5.2-3.3c9-5.8,20.8-6.6,29.9-0.9c20,12.5,17.3,45.3-12.9,51.3c-2.2,0.4-4.6,0.1-6.7-0.9
				c-21.2-9.4-44.5-13.2-67.6-11l-36.7,3.6c-12.6,1.2-24.1,7.4-32.1,17.1l-19.4,23.6c-8.2,10-5,24.9,6.4,30.9
				c153.9,81.7,265.8-23.8,258.6-152.1c-7.8-139.2,69.4-180.5,69.4-180.5C1193.1,1627.6,1005.6,1651.6,935.8,1743.8z"/>
			
				<ellipse transform="matrix(0.9953 -9.676654e-02 9.676654e-02 0.9953 -163.1106 119.6145)" class="st3" cx="1151.7" cy="1741.5" rx="10.6" ry="10.6"/>
			<path class="st3" d="M1060.4,1721.3c-4.5-3.7-11.2-3.1-14.9,1.5c-3.7,4.5-3.1,11.2,1.5,14.9c4.5,3.7,11.2,3.1,14.9-1.5
				C1065.6,1731.7,1064.9,1725,1060.4,1721.3z"/>
			<path class="st3" d="M1143.2,1916.5c3.7-4.5,3.1-11.2-1.5-14.9c-4.5-3.7-11.2-3.1-14.9,1.5c-3.7,4.5-3.1,11.2,1.5,14.9
				C1132.8,1921.7,1139.5,1921,1143.2,1916.5z"/>
		</g>
		<g>
			<path class="st3" d="M922,1843.8c26.2,23.4,35.1,51.6,37.7,72.5c2.1,16.5-1.6,33.2-10,47.6l0,0c0,0,0,0.1-0.1,0.1
				c-3.5,5.9-11.6,7.2-16.9,2.8l-62.3-51.2c-2.7-2.2-4.4-5.4-4.7-8.9l-2-20.8c-1-10.7,1.4-21.3,5.7-31.2c0.5-1.1,0.8-2.2,1.1-3.5
				c0.8-4.3-0.4-8.9-3.2-12.3c-6.9-8.2-19.6-7.1-25,2c-2.8,4.7-2.7,10.8,0.1,15.6c0.2,0.3,0.3,0.6,0.5,0.8
				c6.6,9.8,10.7,21,11.9,32.7l0.4,4.2c0.3,3.5-3.7,5.7-6.5,3.4l-8.5-7c-10-8.2-18.7-18.3-23.3-30.4c-0.9-2.4-2.4-4.5-4.5-6.3
				c-7.2-5.9-18.3-4.1-23.1,4.5c-3,5.4-2.3,12.3,1.6,17c2.6,3.1,6,4.8,9.5,5.3c11.5,1.7,22.1,7.3,31.1,14.7l55.8,45.9
				c2.3,1.9,1.2,5.6-1.8,5.9l-13.8,1.3c-9.1,0.9-23.6-1.1-32.1-4.5l-3.2-1.3c-5.6-2.2-12.2-1.4-16.6,2.7
				c-9.7,9.1-4.6,26.8,12.7,26.9c1.3,0,2.5-0.5,3.6-1.2c10.7-7.5,23.1-12.1,36.1-13.4l20.6-2c7.1-0.7,14.1,1.5,19.6,6l13.3,10.9
				c5.6,4.6,5.5,13.2-0.2,17.7c-76,61.7-149.2,15.7-159.1-55.9c-10.8-77.6-57.8-92-57.8-92C767.4,1807.6,873.5,1800.6,922,1843.8z"
				/>
			<path class="st3" d="M798.9,1870.5c-2.5-2.1-2.9-5.8-0.8-8.4c2.1-2.5,5.8-2.9,8.4-0.8c2.5,2.1,2.9,5.8,0.8,8.4
				C805.2,1872.2,801.4,1872.6,798.9,1870.5z"/>
			<circle class="st3" cx="855.4" cy="1848.7" r="6"/>
			<path class="st3" d="M826.2,1961.6c-2.5-2.1-2.9-5.8-0.8-8.4c2.1-2.5,5.9-2.9,8.4-0.8c2.5,2.1,2.9,5.8,0.8,8.4
				C832.5,1963.3,828.8,1963.7,826.2,1961.6z"/>
		</g>
	</g>
	<g>
		<g>
			<path class="st0" d="M1167.6,546.7v196.2c0,4.6-5.9,6.6-8.7,3c-22.4-28.5-51.9-51.2-85.9-65.4c-1.8-0.8-3-2.5-3-4.5v-54.3
				c0-2.2-1.5-4.1-3.6-4.7l-120.1-51.5c-0.8-0.2-1.7-0.2-2.5,0l-120.1,51.5c-2.1,0.6-3.6,2.5-3.6,4.7v4.7
				c0,42.4,34.4,76.7,76.7,76.7h96.5c96.1,0,174.4,78.2,174.4,174.3v19.7c0,1.4-0.6,2.7-1.6,3.6l-217.7,194.4
				c-1.9,1.7-4.7,1.7-6.5,0L724,900.8c-1-0.9-1.6-2.3-1.6-3.6V766.5c0-4.6,5.7-6.6,8.6-3.1c22.8,27.2,52.3,48.6,85.9,61.8
				c1.9,0.7,3.1,2.5,3.1,4.6v23.7c0,1.4,0.6,2.7,1.6,3.6l55.1,49.2l65,58.1c1.9,1.7,4.7,1.7,6.5,0L1065.1,860c1.4-1.3,2-3.3,1.4-5.1
				c-9.7-31.3-38.9-54.1-73.3-54.1h-96.5c-96.3,0-174.4-78.1-174.4-174.4v-79.7c0-2.2,1.5-4.1,3.6-4.7l217.7-77.6
				c0.8-0.2,1.7-0.2,2.5,0l217.7,77.6C1166.1,542.5,1167.6,544.5,1167.6,546.7z"/>
		</g>
	</g>
	<g>
		<g>
			<linearGradient id="SVGID_1_" gradientUnits="userSpaceOnUse" x1="894.2599" y1="299.5619" x2="1308.3717" y2="299.5619">
				<stop  offset="0" style="stop-color:#39B54A"/>
				<stop  offset="1" style="stop-color:#0071BC"/>
			</linearGradient>
			<path class="st4" d="M935.8,203.6c-37.7,49.8-43.6,102-41,139.6c2,29.6,14.3,57.5,33.8,79.7l0,0c0.1,0.1,0.1,0.1,0.2,0.2
				c8.1,9.2,22.7,8.5,30.5-0.9l91.2-110.8c3.9-4.8,5.8-10.9,5.2-17.1l-3.6-36.9c-1.9-19.1-9.8-36.7-20.6-52.6
				c-1.2-1.7-2.2-3.6-3.1-5.8c-2.9-7.3-2.4-15.7,1.4-22.6c9.2-16.7,31.7-19.1,44.2-5.1c6.5,7.3,8.4,18,5.1,27.2
				c-0.2,0.6-0.4,1.1-0.6,1.6c-8.2,19.3-11.5,40.3-9.5,61.2l0.7,7.5c0.6,6.3,8.5,8.7,12.5,3.8l12.4-15.1
				c14.6-17.8,26.4-38.4,30.3-61.1c0.8-4.4,2.6-8.7,5.7-12.5c10.6-12.8,30.6-13.5,41.8-0.1c7.1,8.3,8.3,20.7,3,30.3
				c-3.4,6.2-8.7,10.5-14.7,12.6c-19.5,6.9-36.2,20.3-49.3,36.3l-81.6,99.2c-3.4,4.1-0.1,10.3,5.2,9.7l24.6-2.4
				c16.2-1.6,40.8-10.1,54.5-18.9l5.2-3.3c9-5.8,20.8-6.6,29.9-0.9c20,12.5,17.3,45.3-12.9,51.3c-2.2,0.4-4.6,0.1-6.7-0.9
				c-21.2-9.4-44.5-13.2-67.6-11l-36.7,3.6c-12.6,1.2-24.1,7.4-32.1,17.1l-19.4,23.6c-8.2,10-5,24.9,6.4,30.9
				c153.9,81.7,265.8-23.8,258.6-152.1c-7.8-139.2,69.4-180.5,69.4-180.5C1193.1,87.4,1005.6,111.5,935.8,203.6z"/>
			<linearGradient id="SVGID_2_" gradientUnits="userSpaceOnUse" x1="1141.0621" y1="201.2875" x2="1162.2537" y2="201.2875">
				<stop  offset="0" style="stop-color:#39B54A"/>
				<stop  offset="1" style="stop-color:#0071BC"/>
			</linearGradient>
			<circle class="st5" cx="1151.7" cy="201.3" r="10.6"/>
			<linearGradient id="SVGID_3_" gradientUnits="userSpaceOnUse" x1="1043.1" y1="189.3215" x2="1064.2911" y2="189.3215">
				<stop  offset="0" style="stop-color:#39B54A"/>
				<stop  offset="1" style="stop-color:#0071BC"/>
			</linearGradient>
			<path class="st6" d="M1060.4,181.1c-4.5-3.7-11.2-3.1-14.9,1.5c-3.7,4.5-3.1,11.2,1.5,14.9c4.5,3.7,11.2,3.1,14.9-1.5
				C1065.6,191.5,1064.9,184.8,1060.4,181.1z"/>
			<linearGradient id="SVGID_4_" gradientUnits="userSpaceOnUse" x1="1124.452" y1="369.5936" x2="1145.6442" y2="369.5936">
				<stop  offset="0" style="stop-color:#39B54A"/>
				<stop  offset="1" style="stop-color:#0071BC"/>
			</linearGradient>
			<path class="st7" d="M1143.2,376.3c3.7-4.5,3.1-11.2-1.5-14.9c-4.5-3.7-11.2-3.1-14.9,1.5c-3.7,4.5-3.1,11.2,1.5,14.9
				C1132.8,381.5,1139.5,380.8,1143.2,376.3z"/>
		</g>
		<g>
			<linearGradient id="SVGID_5_" gradientUnits="userSpaceOnUse" x1="708.3286" y1="376.5427" x2="960.2465" y2="376.5427">
				<stop  offset="0" style="stop-color:#39B54A"/>
				<stop  offset="1" style="stop-color:#0071BC"/>
			</linearGradient>
			<path class="st8" d="M922,303.7c26.2,23.4,35.1,51.6,37.7,72.5c2.1,16.5-1.6,33.2-10,47.6l0,0c0,0,0,0.1-0.1,0.1
				c-3.5,5.9-11.6,7.2-16.9,2.8l-62.3-51.2c-2.7-2.2-4.4-5.4-4.7-8.9l-2-20.8c-1-10.7,1.4-21.3,5.7-31.2c0.5-1.1,0.8-2.2,1.1-3.5
				c0.8-4.3-0.4-8.9-3.2-12.3c-6.9-8.2-19.6-7.1-25,2c-2.8,4.7-2.7,10.8,0.1,15.6c0.2,0.3,0.3,0.6,0.5,0.8
				c6.6,9.8,10.7,21,11.9,32.7l0.4,4.2c0.3,3.5-3.7,5.7-6.5,3.4l-8.5-7c-10-8.2-18.7-18.3-23.3-30.4c-0.9-2.4-2.4-4.5-4.5-6.3
				c-7.2-5.9-18.3-4.1-23.1,4.5c-3,5.4-2.3,12.3,1.6,17c2.6,3.1,6,4.8,9.5,5.3c11.5,1.7,22.1,7.3,31.1,14.7l55.8,45.9
				c2.3,1.9,1.2,5.6-1.8,5.9l-13.8,1.3c-9.1,0.9-23.6-1.1-32.1-4.5l-3.2-1.3c-5.6-2.2-12.2-1.4-16.6,2.7
				c-9.7,9.1-4.6,26.8,12.7,26.9c1.3,0,2.5-0.5,3.6-1.2c10.7-7.5,23.1-12.1,36.1-13.4l20.6-2c7.1-0.7,14.1,1.5,19.6,6l13.3,10.9
				c5.6,4.6,5.5,13.2-0.2,17.7c-76,61.7-149.2,15.7-159.1-55.9c-10.8-77.6-57.8-92-57.8-92C767.4,267.4,873.5,260.4,922,303.7z"/>
			<linearGradient id="SVGID_6_" gradientUnits="userSpaceOnUse" x1="796.6837" y1="325.7522" x2="808.5954" y2="325.7522">
				<stop  offset="0" style="stop-color:#39B54A"/>
				<stop  offset="1" style="stop-color:#0071BC"/>
			</linearGradient>
			<path class="st9" d="M798.9,330.4c-2.5-2.1-2.9-5.8-0.8-8.4c2.1-2.5,5.8-2.9,8.4-0.8c2.5,2.1,2.9,5.8,0.8,8.4
				C805.2,332.1,801.4,332.4,798.9,330.4z"/>
			<linearGradient id="SVGID_7_" gradientUnits="userSpaceOnUse" x1="849.4216" y1="308.5451" x2="861.3336" y2="308.5451">
				<stop  offset="0" style="stop-color:#39B54A"/>
				<stop  offset="1" style="stop-color:#0071BC"/>
			</linearGradient>
			<circle class="st10" cx="855.4" cy="308.5" r="6"/>
			<linearGradient id="SVGID_8_" gradientUnits="userSpaceOnUse" x1="824.0685" y1="416.7876" x2="835.9805" y2="416.7876">
				<stop  offset="0" style="stop-color:#39B54A"/>
				<stop  offset="1" style="stop-color:#0071BC"/>
			</linearGradient>
			<path class="st11" d="M826.2,421.4c-2.5-2.1-2.9-5.8-0.8-8.4c2.1-2.5,5.9-2.9,8.4-0.8c2.5,2.1,2.9,5.8,0.8,8.4
				C832.5,423.1,828.8,423.5,826.2,421.4z"/>
		</g>
	</g>
</g>
</svg>
