<!--?xml version="1.0" standalone="no"?-->
              <svg id="sw-js-blob-svg" viewBox="0 0 100 100" xmlns="http://www.w3.org/2000/svg" version="1.1">
                    <defs> 
                        <linearGradient id="sw-gradient" x1="0" x2="1" y1="1" y2="0">
                            <stop id="stop1" stop-color="rgba(248, 117, 55, 1)" offset="0%"></stop>
                            <stop id="stop2" stop-color="rgba(251, 168, 31, 1)" offset="100%"></stop>
                        </linearGradient>
                    </defs>
                <path fill="white" opacity="" d="M20.7,-24.4C28.7,-18,38.3,-13.2,40.2,-6.5C42,0.1,36,8.7,29.7,14.7C23.3,20.8,16.7,24.3,9.7,27C2.6,29.8,-4.8,31.8,-11.9,30.3C-19,28.8,-25.7,23.7,-29.8,17C-33.9,10.3,-35.5,1.9,-35.3,-7.4C-35.1,-16.7,-33,-26.8,-26.8,-33.5C-20.6,-40.3,-10.3,-43.6,-2,-41.3C6.3,-38.9,12.7,-30.8,20.7,-24.4Z" width="100%" height="100%" transform="translate(50 50)" stroke-width="0" style="transition: all 0.3s ease 0s;"></path>
              </svg>