<?xml version="1.0" encoding="utf-8"?><svg xmlns="http://www.w3.org/2000/svg" xmlns:xlink="http://www.w3.org/1999/xlink" width="1136" height="383" preserveAspectRatio="xMidYMid" viewBox="0 0 1136 383" style="z-index:1;margin-right:-1.9802px;display:block;animation-play-state:paused" ><g transform="translate(568,191.5) scale(1,1) translate(-568,-191.5)" style="transform:matrix(1, 0, 0, 1, 0, 0);animation-play-state:paused" ><defs style="animation-play-state:paused" ><filter id="blur-oxeqjhz72hb-1" x="-1" y="-1" width="3" height="3" style="animation-play-state:paused" ><feGaussianBlur stdDeviation="3" style="animation-play-state:paused" ></feGaussianBlur></filter>
<filter id="blur-oxeqjhz72hb-2" x="-1" y="-1" width="3" height="3" style="animation-play-state:paused" ><feGaussianBlur stdDeviation="1.5" style="animation-play-state:paused" ></feGaussianBlur></filter>
<filter id="blur-oxeqjhz72hb-3" x="-1" y="-1" width="3" height="3" style="animation-play-state:paused" ><feGaussianBlur stdDeviation="1" style="animation-play-state:paused" ></feGaussianBlur></filter></defs>
<circle cx="132.434035501296" cy="0" transform="matrix(1,0,0,1,0,238.1397705078125)" r="1.8819847806084153" fill="#93dbe9" opacity="0.36000000000000004" style="transform:matrix(1, 0, 0, 1, 0, 238.14);opacity:0.36;animation-play-state:paused" ></circle>
<circle cx="553.2943221768749" cy="0" transform="matrix(1,0,0,1,0,234.41189575195312)" r="1.9721191840048624" fill="#93dbe9" opacity="0.36000000000000004" style="transform:matrix(1, 0, 0, 1, 0, 234.412);opacity:0.36;animation-play-state:paused" ></circle>
<circle cx="1033.7949514669574" cy="0" transform="matrix(1,0,0,1,0,218.73292541503906)" r="4.976243495620016" fill="#f09819" opacity="0.7200000000000001" style="transform:matrix(1, 0, 0, 1, 0, 218.733);opacity:0.72;animation-play-state:paused" ></circle>
<circle cx="612.181898857309" cy="0" transform="matrix(1,0,0,1,0,80.63650512695312)" r="2.6672845093565467" fill="#93dbe9" opacity="0.63" style="transform:matrix(1, 0, 0, 1, 0, 80.6365);opacity:0.63;animation-play-state:paused" ></circle>
<circle cx="150.01361750232283" cy="0" transform="matrix(1,0,0,1,0,58.06787109375)" r="2.7914810661208036" fill="#93dbe9" opacity="0.63" style="transform:matrix(1, 0, 0, 1, 0, 58.0679);opacity:0.63;animation-play-state:paused" ></circle>
<circle cx="1000.3912647564537" cy="0" transform="matrix(1,0,0,1,0,101.24899291992188)" r="4.930284930095919" fill="#f09819" opacity="0.7200000000000001" style="transform:matrix(1, 0, 0, 1, 0, 101.249);opacity:0.72;animation-play-state:paused" ></circle>
<circle cx="338.8960444837432" cy="0" transform="matrix(1,0,0,1,0,106.97271728515625)" r="2.147792141409334" fill="#f09819" opacity="0.36000000000000004" style="transform:matrix(1, 0, 0, 1, 0, 106.973);opacity:0.36;animation-play-state:paused" ></circle>
<circle cx="833.5019565404427" cy="0" transform="matrix(1,0,0,1,0,57.779998779296875)" r="2.5303399287902137" fill="#93dbe9" opacity="0.36000000000000004" style="transform:matrix(1, 0, 0, 1, 0, 57.78);opacity:0.36;animation-play-state:paused" ></circle>
<circle cx="1112.29687539656" cy="0" transform="matrix(1,0,0,1,0,176.19570922851562)" r="2.598604364544424" fill="#f09819" opacity="0.36000000000000004" style="transform:matrix(1, 0, 0, 1, 0, 176.196);opacity:0.36;animation-play-state:paused" ></circle>
<circle cx="858.7768563826108" cy="0" transform="matrix(1,0,0,1,0,177.552734375)" r="1.3371774276819148" fill="#f09819" opacity="0.36000000000000004" style="transform:matrix(1, 0, 0, 1, 0, 177.553);opacity:0.36;animation-play-state:paused" ></circle>
<circle cx="613.289416468774" cy="0" transform="matrix(1,0,0,1,0,25.503204345703125)" r="3.725777648017827" fill="#f09819" opacity="0.63" style="transform:matrix(1, 0, 0, 1, 0, 25.5032);opacity:0.63;animation-play-state:paused" ></circle>
<circle cx="615.6999617169769" cy="0" transform="matrix(1,0,0,1,0,205.8446044921875)" r="3.095518032816789" fill="#5e6fa3" opacity="0.63" style="transform:matrix(1, 0, 0, 1, 0, 205.845);opacity:0.63;animation-play-state:paused" ></circle>
<circle cx="768.5045506715446" cy="0" transform="matrix(1,0,0,1,0,23.858123779296875)" r="2.067813582643233" fill="#5e6fa3" opacity="0.36000000000000004" style="transform:matrix(1, 0, 0, 1, 0, 23.8581);opacity:0.36;animation-play-state:paused" ></circle>
<circle cx="962.3944905155779" cy="0" transform="matrix(1,0,0,1,0,241.14535522460938)" r="5.19768650591949" fill="#f09819" opacity="0.7200000000000001" style="transform:matrix(1, 0, 0, 1, 0, 241.145);opacity:0.72;animation-play-state:paused" ></circle>
<circle cx="492.8087234950517" cy="0" transform="matrix(1,0,0,1,0,280.0723876953125)" r="1.742855932387169" fill="#5e6fa3" opacity="0.36000000000000004" style="transform:matrix(1, 0, 0, 1, 0, 280.072);opacity:0.36;animation-play-state:paused" ></circle>
<circle cx="38.51334477033561" cy="0" transform="matrix(1,0,0,1,0,317.8177490234375)" r="4.87658679599438" fill="#5e6fa3" opacity="0.7200000000000001" style="transform:matrix(1, 0, 0, 1, 0, 317.818);opacity:0.72;animation-play-state:paused" ></circle>
<circle cx="631.7623096345744" cy="0" transform="matrix(1,0,0,1,0,81.40988159179688)" r="2.147718751489946" fill="#f09819" opacity="0.36000000000000004" style="transform:matrix(1, 0, 0, 1, 0, 81.4099);opacity:0.36;animation-play-state:paused" ></circle>
<circle cx="688.5375408382791" cy="0" transform="matrix(1,0,0,1,0,205.7646942138672)" r="3.6817105312336933" fill="#5e6fa3" opacity="0.63" style="transform:matrix(1, 0, 0, 1, 0, 205.765);opacity:0.63;animation-play-state:paused" ></circle>
<circle cx="318.99558329444744" cy="0" transform="matrix(1,0,0,1,0,308.812744140625)" r="4.995112897690171" fill="#5e6fa3" opacity="0.7200000000000001" style="transform:matrix(1, 0, 0, 1, 0, 308.813);opacity:0.72;animation-play-state:paused" ></circle>
<circle cx="1064.4376597970017" cy="0" transform="matrix(1,0,0,1,0,3.531585693359375)" r="2.389354926949072" fill="#5e6fa3" opacity="0.36000000000000004" style="transform:matrix(1, 0, 0, 1, 0, 3.53159);opacity:0.36;animation-play-state:paused" ></circle>
<circle cx="835.9154870164322" cy="0" transform="matrix(1,0,0,1,0,323.2310791015625)" r="2.528242479840963" fill="#f09819" opacity="0.36000000000000004" style="transform:matrix(1, 0, 0, 1, 0, 323.231);opacity:0.36;animation-play-state:paused" ></circle>
<circle cx="800.2956513836377" cy="0" transform="matrix(1,0,0,1,0,303.3983154296875)" r="3.0444386121540274" fill="#93dbe9" opacity="0.63" style="transform:matrix(1, 0, 0, 1, 0, 303.398);opacity:0.63;animation-play-state:paused" ></circle>
<circle cx="146.80984692255686" cy="0" transform="matrix(1,0,0,1,0,283.15814208984375)" r="3.5867598928293694" fill="#93dbe9" opacity="0.63" style="transform:matrix(1, 0, 0, 1, 0, 283.158);opacity:0.63;animation-play-state:paused" ></circle>
<circle cx="355.9183691081393" cy="0" transform="matrix(1,0,0,1,0,249.83712768554688)" r="3.4809848904401237" fill="#93dbe9" opacity="0.63" style="transform:matrix(1, 0, 0, 1, 0, 249.837);opacity:0.63;animation-play-state:paused" ></circle></g></svg>