<!--?xml version="1.0" standalone="no"?-->
              <svg id="sw-js-blob-svg" viewBox="0 0 100 100" xmlns="http://www.w3.org/2000/svg" version="1.1">
                    <defs> 
                        <linearGradient id="sw-gradient" x1="0" x2="1" y1="1" y2="0">
                            <stop id="stop1" stop-color="rgba(248, 117, 55, 1)" offset="0%"></stop>
                            <stop id="stop2" stop-color="rgba(251, 168, 31, 1)" offset="100%"></stop>
                        </linearGradient>
                    </defs>
                <path fill="url(#sw-gradient)" d="M21.4,-31.3C28.9,-28.4,37.1,-24.5,41,-18.1C45,-11.6,44.7,-2.6,43.3,6.1C41.9,14.8,39.2,23.3,33.7,28.8C28.3,34.4,20,37.1,11.9,38.4C3.9,39.7,-3.8,39.6,-11.1,37.5C-18.3,35.5,-25.1,31.6,-29.7,25.9C-34.4,20.3,-36.9,13,-38.4,5.3C-40,-2.5,-40.5,-10.6,-38,-17.9C-35.5,-25.1,-29.9,-31.5,-23.1,-34.7C-16.2,-37.8,-8.1,-37.7,-0.6,-36.8C6.9,-35.9,13.8,-34.1,21.4,-31.3Z" width="100%" height="100%" transform="translate(50 50)" stroke-width="0" style="transition: all 0.3s ease 0s;"></path>
              </svg>