<!--?xml version="1.0" standalone="no"?-->
              <svg id="sw-js-blob-svg" viewBox="0 0 100 100" xmlns="http://www.w3.org/2000/svg" version="1.1">
                    <defs> 
                        <linearGradient id="sw-gradient" x1="0" x2="1" y1="1" y2="0">
                            <stop id="stop1" stop-color="rgba(248, 117, 55, 1)" offset="0%"></stop>
                            <stop id="stop2" stop-color="rgba(251, 168, 31, 1)" offset="100%"></stop>
                        </linearGradient>
                    </defs>
                <path fill="url(#sw-gradient)" opacity="0.3" d="M19.1,-31.2C23.7,-26.7,25.6,-19.6,25.5,-13.5C25.4,-7.4,23.4,-2.2,22.5,3.1C21.6,8.4,21.8,13.8,19.5,17.4C17.2,21,12.2,22.9,7,25.1C1.7,27.2,-3.9,29.7,-8.5,28.5C-13.2,27.4,-17,22.7,-21.2,18.2C-25.4,13.6,-30.1,9.3,-32.8,3.5C-35.5,-2.3,-36.2,-9.6,-33.1,-14.7C-30.1,-19.8,-23.3,-22.7,-17.1,-26.5C-11,-30.3,-5.5,-34.9,0.9,-36.3C7.2,-37.7,14.5,-35.7,19.1,-31.2Z" width="100%" height="100%" transform="translate(50 50)" stroke-width="0" style="transition: all 0.3s ease 0s;"></path>
              </svg>